<?xml version="1.0" encoding="UTF-8"?>
<svg xmlns="http://www.w3.org/2000/svg" width="1024" height="1024" viewBox="0 0 1024 1024">
  <defs>
    <linearGradient id="zipBoxTop" x1="0.08" y1="0.08" x2="0.86" y2="0.92">
      <stop offset="0%" stop-color="#595959"/>
      <stop offset="34%" stop-color="#121212"/>
      <stop offset="100%" stop-color="#020202"/>
    </linearGradient>
    <linearGradient id="zipBoxFace" x1="0" y1="0.5" x2="1" y2="0.5">
      <stop offset="0%" stop-color="#323232"/>
      <stop offset="16%" stop-color="#050505"/>
      <stop offset="84%" stop-color="#050505"/>
      <stop offset="100%" stop-color="#3b3b3b"/>
    </linearGradient>
    <linearGradient id="zipPlate" x1="0.32" y1="0.1" x2="0.62" y2="0.9">
      <stop offset="0%" stop-color="#ff2e35"/>
      <stop offset="46%" stop-color="#e80512"/>
      <stop offset="100%" stop-color="#b30008"/>
    </linearGradient>
    <radialGradient id="zipTopGloss" cx="0.2" cy="0.16" r="0.56">
      <stop offset="0%" stop-color="#ffffff" stop-opacity="0.72"/>
      <stop offset="48%" stop-color="#ffffff" stop-opacity="0.12"/>
      <stop offset="100%" stop-color="#ffffff" stop-opacity="0"/>
    </radialGradient>
    <filter id="zipShadow" x="-20%" y="-20%" width="140%" height="160%">
      <feDropShadow dx="0" dy="24" stdDeviation="24" flood-color="#000000" flood-opacity="0.35"/>
    </filter>
  </defs>

  <g filter="url(#zipShadow)">
    <rect x="122" y="190" width="780" height="470" rx="110" fill="url(#zipBoxTop)"/>
    <rect x="122" y="502" width="780" height="268" rx="88" fill="url(#zipBoxFace)"/>
    <rect x="126" y="506" width="772" height="16" rx="8" fill="#f2f2f2" fill-opacity="0.82"/>
    <rect x="122" y="190" width="780" height="470" rx="110" fill="url(#zipTopGloss)"/>
    <ellipse cx="512" cy="430" rx="234" ry="155" fill="url(#zipPlate)"/>
    <ellipse cx="512" cy="430" rx="230" ry="151" fill="none" stroke="#3a0707" stroke-opacity="0.72" stroke-width="8"/>
    <g fill="#f5f5f5">
      <polygon points="322,332 653,332 690,368 322,368"/>
      <polygon points="592,368 690,368 432,527 334,527"/>
      <polygon points="322,531 690,531 690,604 322,604"/>
    </g>
    <circle cx="700" cy="676" r="18" fill="#ececec"/>
    <circle cx="780" cy="676" r="18" fill="#ececec"/>
  </g>
</svg>
