<svg xmlns="http://www.w3.org/2000/svg" viewBox="0 0 128 128" role="img" aria-labelledby="title desc">
  <title id="title">Blondie active button</title>
  <desc id="desc">A small circular Blondie-inspired icon with retro lettering, multicolor bands, and a stylized face.</desc>
  <defs>
    <clipPath id="clip">
      <circle cx="64" cy="64" r="58"/>
    </clipPath>
    <linearGradient id="ring" x1="0" y1="0" x2="1" y2="1">
      <stop offset="0" stop-color="#7d7d7d"/>
      <stop offset="1" stop-color="#292929"/>
    </linearGradient>
  </defs>

  <circle cx="64" cy="64" r="62" fill="url(#ring)"/>
  <circle cx="64" cy="64" r="58" fill="#050505"/>
  <path d="M76 11c12.5 0.8 22.2 4.1 31 9.7c-9.2 1.3-17.1-0.1-23.8-4.2c-2.9-1.7-5.3-3.5-7.2-5.5z" fill="#f7f7f7" opacity="0.92"/>

  <g clip-path="url(#clip)">
    <rect x="2" y="13" width="18" height="100" fill="#ef4b23"/>
    <rect x="20" y="13" width="18" height="100" fill="#ebca3c"/>
    <rect x="38" y="13" width="19" height="100" fill="#58a7ad"/>
    <rect x="57" y="13" width="16" height="100" fill="#eadcb8"/>
    <rect x="73" y="13" width="18" height="100" fill="#d2c29d"/>
    <rect x="91" y="13" width="17" height="100" fill="#d7b42a"/>
    <rect x="108" y="13" width="18" height="100" fill="#4e9296"/>

    <text x="6" y="33" fill="#ef4b23" font-family="Georgia, 'Times New Roman', serif" font-size="26" font-weight="700" letter-spacing="-1">B</text>
    <text x="23" y="33" fill="#ebca3c" font-family="Georgia, 'Times New Roman', serif" font-size="26" font-weight="700" letter-spacing="-1">L</text>
    <text x="39" y="33" fill="#58a7ad" font-family="Georgia, 'Times New Roman', serif" font-size="26" font-weight="700" letter-spacing="-1">O</text>
    <text x="57" y="33" fill="#eadcb8" font-family="Georgia, 'Times New Roman', serif" font-size="26" font-weight="700" letter-spacing="-1">N</text>
    <text x="76" y="33" fill="#d2c29d" font-family="Georgia, 'Times New Roman', serif" font-size="26" font-weight="700" letter-spacing="-1">D</text>
    <text x="96" y="33" fill="#d7b42a" font-family="Georgia, 'Times New Roman', serif" font-size="26" font-weight="700" letter-spacing="-1">I</text>
    <text x="107" y="33" fill="#4e9296" font-family="Georgia, 'Times New Roman', serif" font-size="26" font-weight="700" letter-spacing="-1">E</text>

    <path d="M64 28c-10.7 0-18.7 4.5-23.9 11.8c-5.1 7.1-6.5 16.3-6 25.9c0.5 9.2 4.1 17.6 9.8 24.6c5.2 6.4 12 10.6 20.1 10.6c8.1 0 14.9-4.2 20.1-10.6c5.7-7 9.3-15.4 9.8-24.6c0.5-9.6-0.9-18.8-6-25.9c-5.2-7.3-13.2-11.8-23.9-11.8z" fill="#f1e0be"/>
    <path d="M30 61c2.4-11.8 6.5-23.4 16.6-31.6c4.8-3.9 10.8-6.6 17.4-7.1c-9 4.9-14.2 12.8-17.8 21.7c-2.7 6.5-4.7 13.5-7.2 20.5c-2.4 6.8-5.5 13.2-10.9 18.1c-1.2-7.3 0.4-14.2 1.9-21.6z" fill="#050505"/>
    <path d="M98.1 61c-2.4-11.8-6.5-23.4-16.6-31.6c-4.8-3.9-10.8-6.6-17.4-7.1c9 4.9 14.2 12.8 17.8 21.7c2.7 6.5 4.7 13.5 7.2 20.5c2.4 6.8 5.5 13.2 10.9 18.1c1.2-7.3-0.4-14.2-1.9-21.6z" fill="#050505"/>
    <path d="M45 28c6.9 4.1 11.8 11.8 13.9 21.2c-8.6 0.9-13.8 7.5-18.7 14.1c1.2-12.5 1.8-24.7 4.8-35.3z" fill="#d7c497"/>
    <path d="M83 28c-6.9 4.1-11.8 11.8-13.9 21.2c8.6 0.9 13.8 7.5 18.7 14.1c-1.2-12.5-1.8-24.7-4.8-35.3z" fill="#d7c497"/>
    <path d="M61.6 47.2c-3.5 4.9-5.1 11.4-5.8 19.3c-0.8 8.8-0.4 17.1 1.1 24.4c-7.1-4.3-11.4-12.7-12.4-23c-0.7-8.4 0.5-16 3.5-22.4c2.8-6 7.4-10.7 13.6-13.7z" fill="#050505" opacity="0.16"/>
    <path d="M66.4 47.2c3.5 4.9 5.1 11.4 5.8 19.3c0.8 8.8 0.4 17.1-1.1 24.4c7.1-4.3 11.4-12.7 12.4-23c0.7-8.4-0.5-16-3.5-22.4c-2.8-6-7.4-10.7-13.6-13.7z" fill="#050505" opacity="0.16"/>

    <path d="M47.5 61.5c3.3-3 7.8-3.8 12.6-1.6" fill="none" stroke="#050505" stroke-width="2.3" stroke-linecap="round"/>
    <path d="M68 59.9c4.3-2.6 8.8-2.1 12.5 1.6" fill="none" stroke="#050505" stroke-width="2.3" stroke-linecap="round"/>
    <ellipse cx="54.5" cy="63.5" rx="1.85" ry="2.4" fill="#050505"/>
    <ellipse cx="73.7" cy="63.5" rx="1.85" ry="2.4" fill="#050505"/>
    <path d="M63.4 66.8c-1.8 4.9-2.1 9.6-0.9 14" fill="none" stroke="#050505" stroke-width="1.9" stroke-linecap="round"/>
    <path d="M56 84.5c4.8 1.7 10.5 1.7 16 0" fill="none" stroke="#c02621" stroke-width="1.8" stroke-linecap="round"/>
    <path d="M50.8 85.7c3.4-2.5 8.1-3.5 13.3-3.5c5.3 0 10 1.1 13.4 3.7c-0.9 5.4-5.8 9.8-13.4 9.8c-7.6 0-12.5-4.5-13.3-10z" fill="#db2d28"/>
    <path d="M55.5 87.3c2.2-0.8 5.1-1.2 8.5-1.2c3.4 0 6.3 0.4 8.5 1.2c-0.8 2.4-4.1 4.5-8.5 4.5c-4.3 0-7.6-2-8.5-4.5z" fill="#f9cfbc"/>

    <path d="M19 103c15.8-6 25.2-17.6 31.2-32.4c2.4 3.9 4.7 7.4 8.5 10.2c-5.2 8.9-15.4 18.9-39.7 22.2z" fill="#050505"/>
    <path d="M109 103c-15.8-6-25.2-17.6-31.2-32.4c-2.4 3.9-4.7 7.4-8.5 10.2c5.2 8.9 15.4 18.9 39.7 22.2z" fill="#050505"/>
  </g>
</svg>
