<?xml version="1.0" encoding="UTF-8"?>
<svg id="Layer_1" data-name="Layer 1" xmlns="http://www.w3.org/2000/svg" viewBox="0 0 824 590">
  <defs>
    <style>
      .zip-toolbox-canvas {
        fill: transparent;
      }

      .cls-1 {
        fill: var(--zip-toolbox-shell-01, #939292);
      }

      .cls-2 {
        fill: var(--zip-toolbox-shell-02, #1d1d1d);
      }

      .cls-3 {
        fill: var(--zip-toolbox-shell-03, #060606);
      }

      .cls-4 {
        fill: var(--zip-toolbox-badge-fill, #ce0f12);
      }

      .cls-5 {
        fill: var(--zip-toolbox-shell-04, #535252);
      }

      .cls-6 {
        fill: var(--zip-toolbox-badge-ink, #fdfdfd);
      }
    </style>
  </defs>
  <path class="zip-toolbox-canvas" d="M0,590V0h824v590H0ZM20.62,362.04c-.69,1.48.17,3.01.21,4.91l2.36,95.82c.37,14.84,3.06,28.15,10.99,40.93-1.45.16-.73,1.49-.68,2.5.68,11.94,7.13,20.8,16.2,27.83,11.59,8.98,23.89,15.17,38.18,18.84,22.44,5.78,44.73,8.09,68.02,8.15h23.13l33,1h45.92l7.27,1h258.24l66.06-1.04c6.82-.11,13.73-1.22,20.41-.13,4.72.77,8.87-.3,13.37-.07,11.75.59,22.9-.16,34.73-1.06,21.39-1.62,36.19,1.9,59.46-2.91,12.29-2.54,24.1-5.29,35.74-9.96,11.54-4.63,19.97-12.23,27.05-22.28,4.16-5.9,8.66-11.8,7.51-19.06,9.03-11.58,12.21-26.46,12.58-40.98l1.01-39.07,2.17-57.13c.06-1.56-.39-3.47-.17-5.81.72-7.3.78-14.21-.35-22.26l-20.69-147.25-15.71-109.26c-1.71-11.89-9.58-21.72-18.58-29.22-22.13-18.45-56.43-25.52-85.22-25.52l-506.47-.08c-26.87,0-62.53,7.94-82.78,26.41-7.88,7.19-14.95,17.02-16.53,28.29L20.6,345.27c-.83,5.92-.52,10.72.02,16.76Z"/>
  <path class="cls-3" d="M803.72,363.06c-1.68,1.23-1.63,3.77-2.56,5.89l-3.94,9.01c-.55,1.26-2.54,2.04-2.25,3.79-8.03,9.17-17.06,17.3-28.77,22.38-5.76,2.5-11.36,5.59-17.07,7.23-13.65,3.92-27.47,5.88-42.4,7.65l-575.67-.03-15.43-1.36c-4.34-.38-10,.19-13.96-.81l-21.71-5.49c-12.41-3.14-24.93-7.93-35.13-16.22l-11.09-9.01c-1.18-.96-1.6-2.26-3.21-3.05-2.38-3.94-3.82-8.65-6.81-12.05-.24-3.17-1-6.92-3.51-9-.54-6.05-.85-10.88-.02-16.81L56.73,83.84c1.58-11.3,8.67-21.15,16.57-28.36,20.31-18.52,56.06-26.48,83-26.48l506.68.08c28.84,0,63.18,7.08,85.34,25.56,9.01,7.51,16.89,17.35,18.61,29.26l15.73,109.41,20.72,147.45c1.13,8.07,1.07,14.98.35,22.3ZM63.36,235.24l-.23,2.06c-.37.03-1.09-.2-1.47.05-.75.49-.31,1.47-.31,2.1,0,.6.02,1.3-.06,1.89l-6.2,49.8c-1.71,13.72-4.87,34.67-3.81,47.8.68,8.42,4.14,16.22,10.32,22.61,25.34,26.22,61.59,27.49,96.47,27.45l284.82,1h118.11l128.74.39c19.32.06,39.04-.86,54.66-11.03l5.42-3.53c6-3.9,12.68-7.72,17.57-13.68,5.61-6.83,8.3-14.98,8.75-23.36.63-11.79-1.14-10.85-1.42-21.07-.42-15.5-3.65-30.3-5.33-45.06l-5.59-49.25-20.88-150.33c-1.55-11.13-16.25-25.99-25.64-26.82-1.62-4.29-21.35-8.77-27.09-9.6-9.99-1.45-19.68-2.95-29.33-2.67l-75.45,1h-250.39s-4.9-1.96-6.78-1.04c-4.87,2.36-13.41.04-13.41.04l-148.89.03c-21.78,0-42.54,2.23-61.8,11.77-11.35,5.62-20.53,15.15-22.12,28.01l-19.53,157.47c-.23,1.88-.56,3.52.88,3.95ZM75.83,59.93c-3.52,3.87-6.75,8.68-7.66,13.99-.79.66-1.55,1.69-1.78,3.28l-11.03,77.07-11.42,85.63-13.6,107.07c-.33,2.61.31,4.83.27,6.88-.19,9.31,5.11,18.33,12.76,25.74,2.33-3.58,2.62-7.44,4.2-11.51-4.88-5.1-6.61-11.12-9.95-16.87-1.77-3.04-3.93,7.3-6.19,2.65,2.55-8.32,3.58-16.6,4.77-25.76l11.59-89.23,21.35-162.8c.71-5.45,4.75-10.13,6.85-15.06,5.12-4.83.96-4.13,10.05-10.73-5.27,1.24-7.17,6.29-10.23,9.66ZM789.13,329.02c.85,6.59,1.54,13.38,1.15,19.99-.14,2.3-2.05,5.59-2.35,7.97-9.15,13.55-7.98,6.37-7.77,23.21,4.39-.99,6.63-4.49,6.98-8.2,4.53.28,6.4-11.1,6.92-13.92,1.01-5.53.46-11.08-.36-17.09l-1.62-11.98c-3.74-27.59-7.5-55.35-10.81-83.27l-1.64-13.79-19.27-138.11c-1.99-8.31-1.52-16.07-6.8-23.47l2.88,14.54,20.34,148.29,12.36,95.82ZM733.99,392.31c-8.63.5-16.63,5.26-25.91,6.36-6.45.76-13.66,2.33-21.07,2.33l-76.99,1-58.13-1-119.97,1-197.85-1-73.26-.04c-7.32,0-14.67-.84-22.86-.1-3.43.31-7.88-.59-11.76-1.31l-33.19-6.17c-4.87-.91-9.38-4.02-15.06-4.35-3.02-.18-5.54,5.64-6.12,7.85,4.06,5.69,10.79,3.79,16.48,5.98,10.96,4.21,22.83,6.53,35.54,6.83l14.02.33,19.22,1,72.98-2,126.23,1,199.86-1,60.81,1,74.93.24c6.47.02,12.68.5,20.09-.45,8.83-1.13,17.75-1.95,26.98-4.87,6.13-1.94,13.84-3.55,18.73-8.84,1.26-2.56-2-9.07-4.6-9.58-4.91-.26-12.28,6.03-19.1,5.82Z"/>
  <path class="cls-3" d="M24,372c1.73,3.82,2.82,9.1,6.81,11.04.62,1.03-.21,3.46,2.13,3.19l1.37,2.83c-.13,8.42-.63,16.99.05,25.89.48,6.28,2.59,22.16,1.31,26.74-.76,2.72.26,4.8.33,7.45v49.8c2.68,3.56,5.46,6.79,8.88,8.83,8.97,9.25,21.22,15.07,33.63,19.32.86-5.72-.51-16.08-.51-16.08l-.83-48.28c-.29-17.27-.57-34.04-.52-50.83.62.16,1.5-.15,2.06.13,7.11,3.56,15.42,3.85,23.08,5.76,8.62,2.15,17.34,2.13,26.2,2.13l1,71.45v45.63h47.41c-1.89-3.75-3.32-7.09-1.47-10.92,1.3-2.7,1.61-6.28,3.29-8.74,8.21-12.01-3.69-13.52-.68-25.08,1.44-5.52,3.71-11.26,3.46-17.13-.17-4.09-1.99-7.86-1.02-12.15.64-2.85-.52-5.44-.62-8.25-.14-4.15,1.93-9.16-.13-13.27-2.33-4.66-6.54-9.09-5.53-14.84.32-1.8,3.21-3.36,2.2-5.37,3.95.13,12.14-1.24,12.14-1.24h118.94s.05.97.18,1.42c.49,1.78.82-.42.82-.42h338s.05.77.65.89c1.28.26,5.42.26,6.7,0,.6-.12.9-.95.65-1.89,4.04.32,8.33-1.06,12,1-3.11,2.02,3.79,6.57,2.74,13.11l-3.36,20.97c-2.61,16.25,1.93,16.25-.15,32.11-.44,3.33,2.37,25.16,3.89,30.56,1.86,6.59,4.67,12.16,1.71,19.49,12.84-.28,24.51.96,36.21-1.13,6.86.58,13.53-1.28,20.07-3.01,3.06-.81,5.97-.89,8.99-2.15,3.86-1.62,9.02-1.11,11.94-4.62,2.49-.04,7.1-1.23,8.63-3.61l.64-27.63c.25-10.84.5-27.14,1.51-37.11.84-8.26-.57-16.27.73-24.38.23-1.47,1.5-23.76-.66-22.95,9.13-5.41,18.32-10.47,26.97-16.7l-2.13,85.02c-1.16,8.65-1.61,17.3-1.61,26.96,5.65-4.51,11.1-10.49,11.62-17.86l.79-11.16.78-21.49,1.03-24.05,1.15-33.72c.23-6.81.1-13.25.43-19.62,2.47-1.89,3.57-9.08,5.67-9.14l-2.17,57.17-1.01,39.09c-.37,14.53-3.55,29.42-12.59,41.01-4.48,5.74-10.76,11.75-15.93,16.07-9.57,7.99-20.69,13.32-31.97,17.78-18.64,7.37-37.89,9.02-58.16,8.99H147.21c-22.83.01-44.83-1.81-65.74-10.21-13.37-5.37-25.57-11.87-35.3-21.61l-3.81-3.81c-2.88-2.88-4.49-7.57-8.29-9.44-7.95-12.8-10.64-26.14-11.01-41l-2.37-96,3.3,5.08ZM573.24,492.54c5.36-2.22,10.13-6.42,8.59-12.56-1.41-5.63-6.93-8.7-12.23-8.42-4.79.25-9.93,3.2-11.28,8.57-1.27,5.03,2.14,10.08,6.82,11.5,2.4,3.09,4.74,2.3,8.1.91ZM650.52,483.29c.95-7.61-6.16-12.19-12.48-11.66s-12.57,5.82-11.19,12.68c1.21,6.05,7.08,8.83,12.57,8.49,4.73-.3,10.32-3.18,11.1-9.51Z"/>
  <path class="cls-1" d="M46.18,517.18c-.8,2.82.83,4.77,2.56,7.15,6.8,9.33,16.29,15.98,27.6,19.59,3.89,4.32,9.11,5.79,14.8,7.04,10.9,2.39,21.47,5.81,32.73,5.8,3.23,0,9.38-.76,9.38-.76h454.43l15.45,1,45.32.42c18.56-3.6,26.79,2.27,45.71.11,12.55-1.44,9.69-.26,22.14-3.18,16.56-3.88,32.79-8.28,46.3-18.53,4.92-3.73,9.47-8.05,10.38-13.75,5.24-4.37,11.6-10.46,16.13-16.27,1.17,7.35-3.4,13.33-7.61,19.32-7.17,10.19-15.72,17.89-27.42,22.58-11.8,4.73-23.77,7.52-36.22,10.09-23.58,4.87-38.58,1.31-60.26,2.95-11.99.91-23.29,1.67-35.2,1.07-4.56-.23-8.76.85-13.55.07-6.77-1.1-13.77.02-20.68.13h-64.71l-34.06,1h-224.19l-7.27-1-46.62-.41-31.59-.59h-23.7s-45.66-2.03-68.15-7.81c-14.31-3.68-26.64-9.88-38.25-18.88-9.09-7.04-15.55-15.92-16.23-27.89-.06-1.01-.77-2.34.68-2.5,3.8,1.87,5.41,6.56,8.29,9.44l3.81,3.81Z"/>
  <path class="cls-5" d="M803.44,363.08c-.23,2.34.22,4.25.17,5.81-2.11.05-3.21,7.25-5.67,9.14l-.99-.06,3.94-9c.93-2.12.88-4.66,2.56-5.89Z"/>
  <path class="cls-5" d="M24,371c.02.3-.12.73,0,1l-3.3-5.08c-.05-1.9-.91-3.43-.22-4.92,2.51,2.08,3.27,5.82,3.51,8.99Z"/>
  <path class="cls-2" d="M175.92,421.24c1,2.01-1.89,3.57-2.2,5.37-1.01,5.76,3.2,10.18,5.53,14.84,2.06,4.11-.01,9.12.13,13.27.1,2.8,1.26,5.4.62,8.25-.97,4.29.86,8.06,1.02,12.15.24,5.86-2.03,11.61-3.46,17.13-3.02,11.56,8.89,13.07.68,25.08-1.68,2.46-1.99,6.03-3.29,8.74-1.85,3.84-.42,7.17,1.47,10.92h-48.41l1-45.63v-71.37c7.33,0,15.9.25,24.55.53l22.37.72Z"/>
  <path class="cls-5" d="M770.97,522.63c-.88,5.54-5.3,9.74-10.09,13.37-13.13,9.96-28.91,14.24-45.01,18.01-12.11,2.84-9.33,1.7-21.53,3.09-18.4,2.11-26.4-3.6-44.45-.1h-46.77l-15.45,1H133.24s-6.14-1.25-9.38-1.24c-11.26.01-21.83-3.41-32.73-5.8-5.69-1.25-10.91-2.72-14.8-7.04-11.31-3.61-20.8-10.27-27.6-19.59-1.74-2.38-3.36-4.34-2.56-7.15,9.74,9.74,21.93,16.24,35.3,21.61,20.91,8.4,65.74,10.21,65.74,10.21l535.01.02c19.97,0,38.92-1.63,57.27-8.88,11.1-4.39,22.05-9.64,31.48-17.51Z"/>
  <path class="cls-2" d="M708,420l1,22.27v36.57l-2.16,10.04c-.31,3.29-1.91,6.46-.16,9.8-1.18,12.67-.82,25.12.36,37.43-11.7,2.09-23.37.85-36.21,1.13,2.96-7.33.15-12.91-1.71-19.49-1.53-5.4-4.33-27.23-3.89-30.56,2.08-15.86-2.46-15.86.15-32.11l3.36-20.97c1.05-6.54-5.84-11.09-2.74-13.11,1.3.54,3.31-.97,5.04-1h36.96Z"/>
  <path class="cls-5" d="M76.49,412.01c-.06,16.71.22,33.4.51,50.58l.83,48.41c.09,5.43,1.12,10.36.27,16.08-12.41-4.25-24.66-10.07-33.63-19.32.11-2.22,2.1-5.05,1.26-7.66-1.98-6.12-.57-11.66-.72-17.5-.22-8.49-1.24-17.02.1-25.29.38-2.32-.87-24.53-.88-30.59-.01-5.73,1.1-11-.35-16.86-1.05-4.26.03-8.82-.08-12.79,10.26,6.3,21.03,11.93,32.69,14.95Z"/>
  <path class="cls-5" d="M726.55,419c3.03,10.93,2.6,16.82,2.45,28.02l-.77,56.84c-.21,15.71-3.22,18.25-.56,29.7-6.66,1.77-13.45,3.66-20.43,3.06-1.2-12.53-1.56-25.2-.36-38.11-1.78-3.4-.16-6.63.16-9.98l.96-10.22,1-36.05-.28-22.19c5.91,0,12.08.15,17.83-1.08Z"/>
  <path class="cls-5" d="M750.63,412.88c.6,3.41-.49,7.27.38,11.02.79,3.37.1,5.9.03,9.2l-.65,27.83c-.13,5.62-1.31,10.8-1.4,16.34l-.48,30.72c-.03,2.07-2.6,19.73-.79,18.36-2.91,3.51-8.07,3-11.94,4.62-.58-3.27.86-7.24-.25-10.73-1.31-4.12-.11-7.76-.42-11.55-1.01-12.05-.15-23.53,1.48-35.58s.86-22.65,1.35-34.09c.17-4.08,1.38-7.8.87-12.03-.48-3.95.1-7.65.78-11.06,2.95-.63,6.05-2.53,9.04-3.11.63-.12,1.35.15,1.99.07Z"/>
  <path class="cls-2" d="M44.28,397.07c.11,3.97-.98,8.54.08,12.79,1.45,5.87.34,11.13.35,16.86.01,6.06,1.26,28.26.88,30.59-1.34,8.27-.33,16.8-.1,25.29.15,5.84-1.26,11.38.72,17.5.84,2.61-1.15,5.44-1.26,7.66-3.42-2.04-6.2-5.27-8.94-8.83v-49.8c0-2.65-1.02-4.73-.26-7.45,1.28-4.58-.83-20.46-1.31-26.74-.68-8.89-.18-17.46-.05-25.89,3.72,2.02,6.32,5.81,9.91,8.01Z"/>
  <path class="cls-1" d="M740.26,415.92c-.68,3.41-1.26,7.11-.78,11.06.51,4.22-.7,7.95-.87,12.03-.49,11.44.21,22.56-1.35,34.09s-2.49,23.53-1.48,35.58c.32,3.79-.89,7.43.42,11.55,1.11,3.48-.32,7.45.25,10.73-3.02,1.27-5.93,1.34-8.99,2.15-2.62-11.24.34-13.74.55-29.17l.75-56.82c.15-11.27.57-17.2-2.47-28.2l13.97-3Z"/>
  <path class="cls-2" d="M759.07,410.65c2.16-.8.89,21.49.66,22.95-1.29,8.11.11,16.12-.73,24.38-1.01,9.97-1.26,26.27-1.51,37.11l-.64,27.63c-1.53,2.38-6.14,3.57-8.63,3.61-1.81,1.37.75-16.28.79-18.36l.48-30.72c.09-5.53,1.27-10.71,1.4-16.34l.65-27.83c.08-3.3.76-5.83-.03-9.2-.88-3.74.22-7.6-.38-11.02,2.14-1.91,5.56-1.89,7.95-2.23Z"/>
  <path class="cls-2" d="M797.97,378.02c-.33,6.37-.2,12.81-.43,19.62l-1.15,33.72-1.03,24.05-.78,21.49-.79,11.16c-.52,7.37-5.97,13.35-11.62,17.86,0-9.66.45-18.31,1.61-26.96,4.98,1.83,5.91-21.58,5.24-24.91,1.55-3.71,1.53-7.41-.02-11.08v-20.03c.02-3.48,1.82-6.53,2.12-9.95-3.44-10.45,1.91-18.49-1.04-22.9,1.16-3.3,5.25-4.62,4.65-8.34-.28-1.75,1.7-2.53,2.25-3.79l.99.06Z"/>
  <path class="cls-6" d="M748.88,411.77l.07,1.4c-3,.55-6.1,2.35-9.04,2.95l-13.97,2.85c-5.78,1.18-11.99,1.03-17.94,1.03l-36.96.03c-1.73,0-3.74,1.43-5.04.92-3.67-1.96-7.96-.65-12-.95-2.64-.2-5.35,0-8,0h-339l-118.94.09c-4.44,0-8.18,1.21-12.14,1.09l-22.37-.68c-8.65-.26-17.22-.5-25.55-.5-8.82,0-17.5.02-26.07-2.02l-.03-1.05c3.95.95,9.61.41,13.95.77l15.41,1.29,575.26.03c14.91-1.67,28.73-3.53,42.37-7.26Z"/>
  <path class="cls-6" d="M573.24,492.54c-3.36,1.39-5.7,2.18-8.1-.91-4.68-1.42-8.09-6.47-6.82-11.5,1.36-5.37,6.49-8.32,11.28-8.57,5.3-.28,10.82,2.8,12.23,8.42,1.54,6.14-3.23,10.34-8.59,12.56Z"/>
  <path class="cls-6" d="M650.52,483.29c-.79,6.33-6.37,9.21-11.1,9.51-5.49.34-11.36-2.44-12.57-8.49-1.38-6.86,4.89-12.15,11.19-12.68s13.43,4.05,12.48,11.66Z"/>
  <path class="cls-5" d="M783.77,478.96l2.13-85.02c1.39-1,2.11-3.46,4.17-3.85,2.95,4.4-2.4,12.44,1.04,22.9-.3,3.41-2.11,6.47-2.11,9.95v20.03c1.54,3.67,1.56,7.37,0,11.08.67,3.33-.27,26.74-5.24,24.91Z"/>
  <path class="cls-1" d="M794.7,381.76c.6,3.72-3.49,5.05-4.65,8.34-2.06.39-2.78,2.85-4.17,3.85-8.65,6.24-17.85,11.29-26.97,16.7-2.39.34-5.81.32-7.95,2.23-.64.08-1.36-.19-1.99-.07l-.07-1.47c5.7-1.64,11.3-4.73,17.06-7.22,11.71-5.07,20.73-13.2,28.75-22.36Z"/>
  <path class="cls-6" d="M80.2,411.29c.47.82-.75.74-1.24.86-.56-.28-1.44.03-2.05-.13-11.67-3.02-22.44-8.64-32.69-14.95-3.59-2.2-6.18-5.99-9.91-8.01l-1.37-2.83,1.08-.14,11.08,9c10.2,8.28,22.7,13.07,35.11,16.21Z"/>
  <path class="cls-1" d="M101.89,416.77l.03,1.1c-7.62-1.9-15.89-2.19-22.97-5.73.49-.11,1.71-.03,1.24-.86l21.69,5.48Z"/>
  <path class="cls-1" d="M30.81,383.04c-3.99-1.94-5.08-7.22-6.81-11.04-.12-.27.02-.7,0-1,3,3.39,4.43,8.1,6.81,12.04Z"/>
  <path class="cls-1" d="M34.01,386.08l-1.08.14c-2.33.27-1.51-2.16-2.13-3.19,1.61.78,2.02,2.09,3.2,3.05Z"/>
  <path class="cls-5" d="M654,420c.25.94-.05,1.77-.65,1.89-1.28.26-5.42.26-6.7,0-.6-.12-.9-.95-.65-1.89,2.65,0,5.36-.21,8,0Z"/>
  <path class="cls-2" d="M307,420h1c.07.26-.33,3.2-.82,1.42-.12-.44-.15-.87-.18-1.42Z"/>
  <path class="cls-5" d="M717.28,47.18c1.75,4.63,17.31,3.68,23.63,32.99l-2.09-.3c-1.56-16.51-21.47-30.12-37.23-33.79-10.44-2.44-31.94-6.07-31.94-6.07l-57.42-1h-126.13s-4.03.98-6.07,1.96c-6.29,3.02-13.72,2.49-20.56,3.25-3.8.42-5.68,3.89-8.26,6.09-1.76,1.5-4.81,1.08-5.3,3.92,1.26.69,2.74,1.31,3.15,2.62l-11.03-1.06c-5.29-.51-9.61-.67-15.18-.8-46.7-1.1-93.17,5.82-135.97,24.66-33.92,14.94-68.78,39.88-80.95,75.51-9.6-5.34-7.95-1.94-12.83-.09-6.25,2.36-11.21,5.59-15.93,10.17-4.17,4.04-13.42,1.67-19.63,13.35-4.14.38-6.3,2.49-8.66,5.34-6.26,7.57-11.21,4.64-18.53,12.64l-20.8,6.05c-3.45,1-6.89,1.06-10.22,2.69-6.07,2.96-14.64-3.94-20.91,2.68-2.82,2.98-2.3,6.06-2.72,10.09-.17,1.65-7.91,62.94-7.63,54.86l-.14,4.08c-1.98.78-1.47,2.93-1.79,5.03l-5.95,39.03c-2.51,16.45-3.12,29.11,9.4,40.42,3.68,3.33,6.68,6.62,11.86,8.36,2.38.8,5.11,2.08,6.34,4-6.47.42-8.44-4.52-13.62-3.94-.22-.41-1.01-.52-1.21-.95-.76-1.66-10.18-11.62-11.72-11.09-.09-3.27-6.45-7.01-6.36-13.66,0-.45.07-.95-.06-1.54-.14-.62-.77-1.55-1.6-.87l-.16-1.74c-.5-5.57-.05-11.18.66-17.36l2.02-17.63,7.18-32.71c1.06-4.81,2.87-8.18,3.55-13.42l6.52-50.33,9.09-61.56,3.6-14.48c1.08-4.36,1-9.87,3.04-14,2.87-2.33,20.12-9.04,21.18-9.74,4.01-2.63,7.9-5.63,12.26-7.45,9.33-3.9,18.3-7.37,27.13-12,3.4-1.78,6.31-3.82,10.12-4.99,5.35-1.64,10.24-4.03,14.87-7.17l23.26-15.77c4.09-2.77,8.81-3.55,13.18-5.77,6.27-3.2,11.37-8.39,18-10.99,3.74-1.46,6.37-4.28,9.69-5.85,5.09-2.41,18.72,1.38,16.61-2.82l102.02.05,10.39.73,17.75-.46c92.32-2.41,184.34,1.31,275.83-1.37,9.62-.28,19.29,1.22,29.25,2.67,5.73.83,25.41,5.3,27.03,9.58Z"/>
  <path class="cls-1" d="M255,35.67c2.11,4.2-11.52.41-16.61,2.82-3.32,1.58-5.95,4.39-9.69,5.85-6.63,2.6-11.73,7.79-18,10.99-4.36,2.23-9.09,3-13.18,5.77l-23.26,15.77c-4.67,3.17-9.82,5.53-15.2,7.27-3.65,1.18-6.49,3.16-9.79,4.89-8.83,4.63-17.8,8.1-27.13,12-4.35,1.82-8.24,4.82-12.26,7.45-1.06.7-18.31,7.41-21.18,9.74-2.04,4.13-1.96,9.65-3.04,14l-3.6,14.48-9.09,61.56-6.52,50.33c-.68,5.24-2.49,8.61-3.55,13.42l-7.18,32.71-2.02,17.63c-.71,6.18-1.16,11.79-.66,17.36l-1.92-.1c-1.06-13.18,2.11-34.18,3.82-47.94.87.22,1.73.06,1.93-.65s.02-1.42.17-2.29l4.76-28.01,2.18-16.01c.15-1.07-.36-2.06-.87-2.58-.41-.41-1.27-.44-1.95-.4.07-.59.06-1.3.06-1.9.73.27,1.38-.17,1.58-.76.18-.52.16-.98.2-1.4l.23-2.07c1.67-1.67,1.44-4.18,1.81-6.85l8.64-63.72,6.16-33.92c2.63-14.47,7.4-28.07,8.82-42.8.57-5.9,3.7-11.04,5.24-16.46,2.03-7.12,7.92-16.63,14.81-19.87,5.77-2.72,11.18-6.33,17.74-8.11,13.15-3.57,26.5-7.81,40.58-7.86l87.99-.33Z"/>
  <path class="cls-2" d="M551.9,402c-.27,3.41,4.25,7,4.25,7l-199.86,1-126.25.14c-.04-4.7,3.59-4.14,4.06-9.14l197.83,1h119.97Z"/>
  <path class="cls-6" d="M51.61,339.3l.16,1.77c.04.47-.18,1-.02,1.59.18.66.91,1.52,1.72.87-.09,6.78,6.39,10.59,6.48,13.92.09,3.12,9.59,13.16,11.94,11.3.2.44,1.01.55,1.23.96,3.83,7.23,32.3,12.3,41.12,13.81,3.44.59,7.02,1.48,9.64-.48l3.18-.07.57.59c-.16.94.74,1.48,1.84,1.72,1,.22,1.75-1.2,2.55-1.22l5.28-.11,7.79.22c-.69,1.03.45,2.08,1.61,2,.56-.04,1.13-.66,1.62-1.08,2.65-.36,6.15.93,8.27-.85,4.09.78,8.79,1.38,12.94.95-1.59,4.53,15,.66,13.41.92,5.81-.96,11.83,1.29,17.44-.87,3.18-1.22,7.45.76,11.21.77h89.23s.27,2.25,1.23,2.2c23.38-1.11,46.41,1.24,68.95-1.2,3.28-.36,6.87-.13,10.18-.15,16.94-.09,33.9.5,50.79-.67,4.89-.34,10.14,1.81,15.03,0,1.52-.56,4.45-.44,6,0,3.39.97,6.6.69,10,0s6.74-.11,10,0c26.98.94,81.43.81,81.43.81l122.3-1c14.99-.12,29.14-1.87,43.21-4.6.45.43,1.15,1.1,1.63.88.75-.34,1.42-1.22.79-1.82l7.08-1.08c8.27,3.6,9.15-4.97,21.05-3.2l-5.52,3.59c-15.9,10.35-35.97,11.29-55.65,11.23l-128.32-2-118.11,1-284.16.32c-35.63.04-72.66-1.25-98.54-28.04-6.31-6.53-9.84-14.5-10.54-23.09l1.95.1Z"/>
  <path class="cls-6" d="M357.05,34.97l-.02,1.03-102.02,1h-87.99s-27.43,3.63-40.58,7.19c-6.56,1.78-11.97,5.4-17.74,8.11-6.89,3.25-12.78,12.76-14.81,19.87-1.54,5.42-4.67,10.55-5.24,16.46-1.41,14.73-6.19,28.33-8.82,42.8l-6.16,33.92-8.64,63.72c-.36,2.67-.14,5.18-1.81,6.85-1.44-.43-1.12-2.08-.88-3.96l19.59-157.93c1.6-12.9,10.81-22.46,22.19-28.1,19.32-9.57,61.98-11.94,61.98-11.94h148.72s8.54,2.32,13.41-.04c1.88-.91,6.78,1.04,6.78,1.04l22.02-.03Z"/>
  <path class="cls-5" d="M69.15,76.2l-21.35,162.8-11.59,89.23c-1.19,9.16-2.22,17.45-4.77,25.76h-.83c.04-2.06-.6-4.27-.27-6.88l13.6-107.07,11.42-85.63,11.03-77.07c.23-1.59.99-2.62,1.78-3.28-.14.41-.23.96-.23,1.7,0,.49.6.82,1.21.44Z"/>
  <path class="cls-5" d="M792.08,329h-2.95s-12.36-95.81-12.36-95.81l-20.34-148.29-2.88-14.54c5.29,7.4,4.81,15.16,6.8,23.47l19.27,138.11,1.64,13.79c3.32,27.91,7.08,55.67,10.81,83.27Z"/>
  <path class="cls-1" d="M769.27,273.03l-1.34.03c-.11-1.27-1.02-2.61-.8-3.94.31-.45.93-.87.7-1.33-.44-.92-.71-2.24-1.69-1.88l-11.17-88.63c-.09-.75.22-2.31-.82-2.4l-6.26-48.72c-.09-.7.28-2.24-.74-2.27.25-4.22-1.21-8.5-1.27-12.73,0-.7.23-2.24-.75-2.29.67-2.66-1.1-5.27-1.14-7.8-.03-2.38-.27-4.05-.87-6.21-.85-3.07-.77-6.55-1.25-9.69-.11-.75.23-2.23-.81-2.35-.1-.82-.01-1.82-.19-2.65-6.32-29.3-21.88-28.36-23.63-32.99,9.37.83,24.04,15.65,25.58,26.75l20.83,149.96,5.58,49.13Z"/>
  <path class="cls-1" d="M688.03,400.97l5.01,9.03-77.04-.23c-.42-8.58-6.59-6.21-7.13-8.77l79.16-.03Z"/>
  <path class="cls-5" d="M233.68,401.04c-.46,4.91-4.02,4.35-3.98,8.96l-72.22.02c.9-6.08,4.2-4,3.93-9.02l72.27.04Z"/>
  <path class="cls-1" d="M661,34c-91.49,3.62-183.52-.1-275.83,2.31l-17.75.46-10.39-.73.03-1.11,29.17-.94h274.78Z"/>
  <path class="cls-5" d="M611.16,401.1c.54,2.6,6.82.19,7.24,8.9l-63.49-.05c.21-5.77-4.72-4.55-4.44-8.95l60.7.1Z"/>
  <path class="cls-6" d="M126.25,399.52c-1.03,3.4-3.02,6.56-2.36,10.18-12.77-.3-24.71-2.63-35.72-6.86,2.97-2.05,4.29-6.01,4.72-9.52l33.37,6.2Z"/>
  <path class="cls-6" d="M733.99,393c-.08,4.45,3.3,7.94,4.97,11.98-9.23,2.77-18.16,3.56-26.98,4.63.36-3.94-1.81-7.33-3.89-10.57,9.27-1.04,17.27-5.57,25.91-6.04Z"/>
  <path class="cls-2" d="M738.97,404.98c-1.68-4.04-5.05-7.54-4.97-11.98,6.83.21,14.19-5.78,19.1-5.53,2.59.48,5.86,6.67,4.6,9.1-4.89,5.03-12.6,6.56-18.73,8.41Z"/>
  <path class="cls-2" d="M30.61,354h.83c2.26,4.66,4.42-5.68,6.19-2.65,3.35,5.75,5.07,11.78,9.95,16.87-1.58,4.07-1.87,7.94-4.2,11.51-7.65-7.41-12.95-16.43-12.76-25.74Z"/>
  <path class="cls-5" d="M708.09,399.04c2.08,3.24,4.25,6.63,3.89,10.57-7.42.9-13.62.45-20.09.43l-4.87-8.78c7.41,0,14.62-1.49,21.07-2.22Z"/>
  <path class="cls-2" d="M92.88,393.31c-.43,3.51-1.75,7.47-4.72,9.52-5.72-2.2-12.49-.28-16.57-6.01.59-2.22,3.12-8.07,6.16-7.89,5.71.34,10.24,3.46,15.14,4.37Z"/>
  <path class="cls-1" d="M161.05,400.89c.27,5.07-3.06,2.97-3.97,9.11l-19.1-.02c.87-3.09,1.65-6.24.09-9.19,8.23-.75,15.62.1,22.98.1Z"/>
  <path class="cls-1" d="M776,339c-.44,8.36-3.13,16.49-8.73,23.31-4.88,5.94-11.54,9.75-17.53,13.65-11.66-1.74-12.52,6.66-20.62,3.13,4.62-2.36,9.74-4.2,14.84-5.22,1.79-.36,12.93-3.57,11.26-6.58.28-.02.6-.08.86-.18,9.96-3.78,15.68-13.8,18.03-24.08.28-1.24-.14-2.75-.11-4.03h2Z"/>
  <path class="cls-5" d="M769.27,273.03c1.67,14.72,4.89,29.49,5.31,44.95.28,10.19,2.04,9.26,1.41,21.02h-2c.27-9.75-.29-19.6-2.78-29.04l-3.29-36.9,1.34-.03Z"/>
  <path class="cls-6" d="M54.94,292l6.22-49.94c.68-.04,1.54-.02,1.95.4.52.52,1.02,1.51.87,2.58l-2.18,16.01-4.76,28.01c-.15.87.04,1.57-.17,2.29s-1.06.87-1.93.65Z"/>
  <path class="cls-5" d="M138.07,400.83c1.56,2.95.78,6.09-.09,9.19l-14.09-.33c-.65-3.61,1.34-6.77,2.36-10.18,3.9.72,8.37,1.63,11.82,1.32Z"/>
  <path class="cls-2" d="M787.14,371.99c-.35,3.71-2.59,7.2-6.98,8.2-.21-16.84-1.38-9.66,7.77-23.21,2.82.06-.55,12.47-.79,15.02Z"/>
  <path class="cls-1" d="M792.08,328.99l1.62,11.98c.81,6.01,1.37,11.56.36,17.09-.8,3.2-2.25-11.18-3.78-9.07.39-6.61-.3-13.4-1.15-19.99h2.95Z"/>
  <path class="cls-5" d="M794.06,358.08c-.52,2.81-2.39,14.19-6.92,13.92.24-2.54,3.62-14.95.79-15.02.3-2.38,2.21-5.67,2.35-7.97,1.52-2.11,2.97,12.27,3.78,9.07Z"/>
  <path class="cls-1" d="M76,61c-2.1,4.93-6.14,9.61-6.85,15.06-.61.39-1.21.06-1.21-.44,0-.74.09-1.29.23-1.7.91-5.31,4.14-10.12,7.66-13.99l.17,1.07Z"/>
  <path class="cls-5" d="M76,61l-.17-1.07c3.06-3.36,4.95-8.42,10.23-9.66-9.09,6.6-4.93,5.9-10.05,10.73Z"/>
  <path class="cls-6" d="M63,238c-.05.42-.02.88-.2,1.4-.2.58-.85,1.03-1.58.76,0-.64-.44-1.62.31-2.11.38-.25,1.1-.02,1.48-.05Z"/>
  <path class="cls-3" d="M449.06,56.83c45.51,4.37,93.69,18.71,130.59,47.47,12.02,9.36,22.22,19.87,30.37,32.68,3.8,5.97,6.01,12.7,9.16,19.2,4.35.03,6.34-4.83,9.82-6.25,5.73-2.33,11.62-3.49,16.11-7.97,8.65,1.48,29.99-9.58,33.01-15.98,1.42-3.01,4.34-4.26,6.9-5.96,3.85-2.54,6.53-6.09,10.31-9.2,7.54,1.3,14.8-2.75,18.01-9.8,9.31-3.21,16.84-22.41,25.48-21.17l2.09.3c.18.82.09,1.83.19,2.65l-.94.97c-.34.35-.25.92.17,1.16.65.36,1.09.67,1.57.23.48,3.14.4,6.62,1.25,9.69-1.47.38-1.1,2.28-1.26,3.63-.16,1.27.21,3.2,2.13,2.58.03,2.53,1.8,5.14,1.14,7.8l-.96.93c-.43.42-.15.98.31,1.24.55.31.96.51,1.4.13.06,4.22,1.52,8.5,1.27,12.73-.34.28-.78.61-.97.92-.32.5-.15.98.31,1.23.55.3.97.49,1.4.12l6.26,48.72c-.45.35-1.41,1.1-1.14,1.57.44.78,1.37,1.36,1.96.83l11.17,88.63c.13,1.04-.52,2.95.98,3.21-.22,1.33.68,2.67.8,3.94l3.29,36.9c-1.6.04-2.02-1.16-2.38-2.71l-4.65-20.41c-.63-2.75-6.7-5.01-9.02-4.01l-11.29,4.86c5.62-2.42-47.93,9.46-51.85,9.27-4.62-.23-7.48,2.09-10.37,4.66-3.51,3.12-6.74,5.55-9.65,9.62-1.55,2.17-4.74,6.17-7.69,5.67-4.84-.82-7.27.93-11.09,2.29-13.93,4.99-11.11,6.51-25.38,7.13l-8.8.38c-17.47.76-10.09,7.24-24.02,7.35-9.64.07-17.77,4-34.08,5.15-7.3.52-14.34,3.75-21.96,3.54-4.98-.14-9.35,2.19-14.05,3.2-4.2.9-8.21-.57-12.27-.37l-17.92.9c-11.13,18.93-19.88,11.14-24.95,11.68l-6.54.7c-1.38-2.47-3.63-4.07-6.35-3.8-3.43.35-4.86-2.23-7.23-3.75-2.87-1.84-7.07-2.15-10.58-3.4-3.86,4.81-4.03,10.35-4.4,16.09-.59,9.16-3.05,14.8-2.75,22.17-16.89,1.17-33.85.58-50.79.67,2.46-2.77-10.28-2.31-10.18-.85l-70.17,1h-90.69s-7.88-3.05-11.01-1.85c-1.09-2.46-13.51-.96-17.13-.15-4.11.92-8.95-.34-13.17.1s-8.69-.17-12.71-.93c-2.49-.47-5.6-2.84-8.12-.16l-3.17.1-7.65-.22c.64-1.34-.78-1.92-1.75-1.99-1.31-.09-2.6.17-3.44,1.11l-4.11-.05-.52-.58c.02-.52-.42-1.02-.9-1.37-1.06-.77-1.77.81-2.47,1-1.51.41-3.29-.13-4.8-.18.65-.82-.2-1.34-.83-1.79-1-.71-1.8.82-2.55.89-1.52.14-3.22-.54-4.7-.78-.26-.1-.52-.59-.87-.84-.58-.4-1,.62-1.42.63l-3.9.15c.12-.7-.05-1.49-.66-1.8-.48-.23-.97-.31-1.44-.39-.04-1.23-1.07-1.74-2.41-2.22-8.56-3.03-16.87-6.41-23.31-12.71-5.59-5.47-11.02-11.09-12.09-18.97s-1.81-15.7-.8-23.63l4.74-37.33c.3-2.34.25-4.68-1.04-6.04l.14-4.08c1.2.31,2.25-2.27,3.29-2.39l21.7,3.27c3,.45,5.65,1.21,8.34,1.63l26.94,4.26,84.69,12.55c11.09-1.57,16.62-5.6,24.7-7.85,10.34-2.87,16.48-10.9,25.7-10.37-24.45-16.75-43.29-32.85-55.17-60.32-7.97-18.43-8.73-39.79-2.32-58.55,12.17-35.63,47.03-60.57,80.95-75.51,42.79-18.84,89.27-25.77,135.97-24.66,5.57.13,9.89.29,15.18.8l11.03,1.06ZM245.08,109.07c-8.87,5.01-15.12,13.84-21.53,22.31-20.23,26.71-21.76,61.79-4.31,90.35,12.89,21.1,36.84,41.02,58.73,52.28,18.49,9.51,36.82,16.78,57.12,21.86,40.51,10.13,82,12.18,123.5,6.85,34.09-4.37,66.19-14.3,95.97-31.16,8.4-4.75,15.5-9.98,23.08-15.9,13.48-10.52,24.59-23.25,32.2-38.75,12.84-26.17,10.61-56.19-5.31-80.6-11.76-18.03-27.93-33.25-47.5-43.11-19.89-13.44-43.17-21.16-67.01-27.1-58.15-14.48-124.52-11.99-181.05,7.56-23.57,8.15-44.95,19.29-63.89,35.41Z"/>
  <path class="cls-2" d="M738.82,79.87c-8.64-1.24-16.17,17.96-25.48,21.17-3.21,7.05-10.47,11.1-18.01,9.8-3.78,3.11-6.46,6.66-10.31,9.2-2.57,1.69-5.48,2.95-6.9,5.96-3.02,6.4-24.36,17.46-33.01,15.98-4.49,4.48-10.38,5.63-16.11,7.97-3.48,1.42-5.47,6.28-9.82,6.25-3.15-6.51-5.36-13.23-9.16-19.2-8.16-12.81-18.36-23.32-30.37-32.68-36.9-28.76-85.08-43.1-130.59-47.47-.41-1.3-1.89-1.93-3.15-2.62.49-2.84,3.54-2.42,5.3-3.92,2.58-2.2,4.46-5.67,8.26-6.09,6.84-.76,14.27-.22,20.56-3.25,2.04-.98,2.99-2.9,6.07-2.96l126.13,1h57.42c10.99,1.49,21.5,4.64,31.94,7.07,15.76,3.68,35.68,17.28,37.23,33.79Z"/>
  <path class="cls-2" d="M205.93,155.15c-6.41,18.76-5.64,40.12,2.32,58.55,11.88,27.48,30.71,43.58,55.17,60.32-9.22-.53-15.36,7.5-25.7,10.37-8.08,2.25-13.61,6.28-24.7,7.85l-84.69-12.55-26.94-4.26c-2.69-.43-5.35-1.18-8.34-1.63l-21.7-3.27c-1.04.12-2.09,2.7-3.29,2.39-.28,8.08,7.46-53.21,7.63-54.86.42-4.03-.1-7.11,2.72-10.09,6.27-6.62,14.85.28,20.91-2.68,3.34-1.63,6.77-1.69,10.22-2.69l20.8-6.05c7.33-8,12.27-5.07,18.53-12.64,2.36-2.85,4.52-4.96,8.66-5.34,6.21-11.68,15.46-9.3,19.63-13.35,4.72-4.57,9.68-7.8,15.93-10.17,4.88-1.85,3.23-5.25,12.83.09Z"/>
  <path class="cls-2" d="M102.83,377.9l-.05.88c-.5,0-1.01-.12-1.51-.09.56-.59.04-.87-.36-1.15-.75-.51-1.44-.46-2.12-.36-.54.08-1.12-.08-1.66-.04-.28-1.03-1.48-1.02-2.36-1.12-2.4-.27-4.5-2.34-6.99-2.17-1.23-1.92-3.96-3.2-6.34-4-5.17-1.74-8.17-5.02-11.86-8.36-12.51-11.31-11.9-23.97-9.4-40.42l5.95-39.03c.32-2.1-.19-4.26,1.79-5.03,1.28,1.37,1.33,3.71,1.04,6.04l-4.74,37.33c-1.01,7.92-.3,15.58.8,23.63s6.5,13.5,12.09,18.97c6.44,6.3,14.75,9.68,23.31,12.71,1.34.47,2.37.98,2.41,2.22Z"/>
  <path class="cls-1" d="M87.78,373.85c2.49-.16,4.59,1.9,6.99,2.17-.72.56.05,1.5.78,1.93.46.27,1.17-.25,1.57-.81.54-.04,1.12.12,1.66.04-.67.83.2,1.55.86,1.63s1.13-.1,1.61-.12,1.01.08,1.51.09c.58.46,1.32,1.34,2.15,1.31l3.9-.15c-.33.87.71,1.15,1.62,1.06.38-.04,1.02-.18.68-.85,1.48.23,3.17.92,4.7.78.37,1.41,2.28.87,3.38.9,1.51.04,3.29.59,4.8.18v1c-2.58,1.92-6.08,1.05-9.47.47-8.66-1.49-36.61-6.46-40.37-13.56,5.18-.58,7.14,4.37,13.62,3.94Z"/>
  <path class="cls-1" d="M72.95,368.96c-2.3,1.83-11.64-8.03-11.72-11.09,1.55-.53,10.96,9.44,11.72,11.09Z"/>
  <path class="cls-1" d="M54.87,344.2c-.8.65-1.52-.21-1.69-.85-.16-.58.06-1.1.02-1.56.83-.68,1.46.25,1.6.87.14.59.07,1.09.06,1.54Z"/>
  <path class="cls-2" d="M771.22,310.39c2.48,9.43,3.05,19.29,2.78,29.04-.04,1.27.39,2.78.11,4.03-1.05-.34-2.09.33-2.36,1.72-2.26,12.01-11.36,15.33-15.67,22.35-.26.1-.58.16-.86.18-1.12.07-13.2,5.65-11.26,6.58-5.1,1.02-10.22,2.86-14.84,5.22l-6.94,1.06c-.74.11-2.3-.1-2.36.92-13.79,2.68-27.65,4.39-42.34,4.51l-123.05.98c-27.61.22-54.45.58-81.43-.36,2.54-1.76-12.54-1.76-10,0-3.4.69-6.61.97-10,0,1.16-1.76-7.16-1.75-6,0-4.89,1.8-10.15-.35-15.03,0-.3-7.37,2.15-13.01,2.75-22.17.37-5.75.54-11.29,4.4-16.09,3.51,1.24,7.71,1.55,10.58,3.4,2.37,1.52,3.8,4.1,7.23,3.75,2.71-.28,4.97,1.33,6.35,3.8l6.54-.7c5.07-.54,13.82,7.25,24.95-11.68l17.92-.9c4.07-.2,8.08,1.26,12.27.37,4.7-1.01,9.07-3.34,14.05-3.2,7.62.21,14.66-3.02,21.96-3.54,16.31-1.15,24.44-5.08,34.08-5.15,13.92-.11,6.54-6.6,24.02-7.35l8.8-.38c14.27-.62,11.45-2.13,25.38-7.13,3.81-1.37,6.24-3.11,11.09-2.29,2.95.5,6.14-3.51,7.69-5.67,2.91-4.07,6.14-6.49,9.65-9.62,2.89-2.57,5.75-4.88,10.37-4.66,3.91.19,57.46-11.68,51.85-9.27l11.29-4.86c2.32-1,8.4,1.26,9.02,4.01l4.65,20.41c.35,1.55.77,2.76,2.38,2.71Z"/>
  <path class="cls-1" d="M371,385.86v1c-22.53,2.44-45.57.09-68.95,1.2-.95.05-1.86-1.65-1.23-2.06l70.17-.14Z"/>
  <path class="cls-5" d="M199.13,385.15c-5.51,2.11-11.43-.09-17.13.85v-1c3.61-.81,16.04-2.32,17.13.15Z"/>
  <path class="cls-1" d="M182,385v1c1.56-.26-14.73,3.55-13.17-.9,4.22-.44,9.06.83,13.17-.1Z"/>
  <path class="cls-2" d="M381.18,386.85c-3.31.02-6.9-.21-10.18.15v-1c-.1-1.46,12.65-1.91,10.18.85Z"/>
  <path class="cls-5" d="M156.12,384.16c-2.08,1.75-5.52.48-8.12.84v-1c2.53-2.68,5.64-.31,8.12.16Z"/>
  <path class="cls-3" d="M473,386.19c-3.26-.11-6.77-.66-10,0-2.54-1.76,12.54-1.76,10,0Z"/>
  <path class="cls-5" d="M137.18,383.89l-5.18.11v-1c.84-.94,2.12-1.2,3.44-1.11.97.07,2.39.65,1.75,1.99Z"/>
  <path class="cls-1" d="M132,383.05v1c-.79.02-1.52,1.41-2.5,1.2-1.28-.28-2.29-.97-1.61-2.25l4.11.05Z"/>
  <path class="cls-5" d="M127.15,382.93l-3.15.07v-1c.7-.19,1.42-1.77,2.47-1,.65.47,1.22,1.21.68,1.93Z"/>
  <path class="cls-3" d="M453,386.19c-1.55-.44-4.48-.56-6,0-1.16-1.75,7.16-1.76,6,0Z"/>
  <path class="cls-1" d="M148,384v1c-.48.41-1.04,1.02-1.59,1.06-1.14.09-2.26-.94-1.58-1.96l3.17-.1Z"/>
  <path class="cls-1" d="M722.18,380.15c.62.59-.04,1.45-.77,1.78-.47.21-1.15-.44-1.6-.86.07-1.01,1.62-.8,2.36-.92Z"/>
  <path class="cls-5" d="M744.02,101.07c-1.92.62-2.29-1.31-2.13-2.58.17-1.35-.21-3.25,1.26-3.63.6,2.16.83,3.83.87,6.21Z"/>
  <path class="cls-5" d="M767.13,269.13c-1.5-.26-.85-2.17-.98-3.21.98-.36,1.24.96,1.69,1.88.22.46-.4.88-.7,1.33Z"/>
  <path class="cls-2" d="M745.91,111.16c-.44.38-.85.18-1.4-.13-.46-.26-.75-.82-.31-1.24l.96-.93c.98.05.74,1.59.75,2.29Z"/>
  <path class="cls-2" d="M754.99,177.29c-.59.53-1.52-.05-1.96-.83-.27-.47.7-1.22,1.14-1.57,1.03.09.72,1.66.82,2.4Z"/>
  <path class="cls-5" d="M741.91,85.17c-.44.4-.85.18-1.4-.13-.44-.25-.68-.89-.34-1.25l.94-.97c1.04.12.69,1.6.81,2.35Z"/>
  <path class="cls-2" d="M747.91,126.16c-.44.37-.85.17-1.4-.12-.46-.25-.63-.73-.31-1.23.2-.31.63-.63.97-.92,1.02.03.65,1.57.74,2.27Z"/>
  <path class="cls-5" d="M774.11,343.03c-2.35,10.28-8.07,20.3-18.03,24.08,4.31-7.02,13.41-10.34,15.67-22.35.26-1.4,1.31-2.06,2.36-1.72Z"/>
  <path class="cls-5" d="M755.22,367.28c1.67,3.02-9.47,6.23-11.26,6.58-1.95-.93,10.14-6.51,11.26-6.58Z"/>
  <path class="cls-4" d="M557.03,93.2c-5.06-1.07-9.26-4.69-14.23-6.88l-21.24-9.33c-27.78-12.21-58.59-17.17-89.56-18.13-.42-.01-.91.14-2,.14-.86-1.64-4.14-1.64-5,0-3.02,0-6.15-.62-9.19.51,5.41,2.73,10.43,1.1,16.28,1.5,39.29,2.65,73.81,10.52,109.74,27.95,19.24,9.34,34.19,21.96,50.5,36.96-7.78-15.49-23.71-22.16-35.29-32.72,19.57,9.86,35.73,25.08,47.5,43.11,15.92,24.41,18.15,54.43,5.31,80.6-7.6,15.5-18.71,28.23-32.2,38.75-7.59,5.92-14.69,11.15-23.08,15.9-29.78,16.86-61.88,26.79-95.97,31.16-41.5,5.33-82.99,3.28-123.5-6.85-20.3-5.08-38.64-12.35-57.12-21.86-21.89-11.25-45.84-31.18-58.73-52.28-17.45-28.56-15.92-63.63,4.31-90.35,6.41-8.47,12.66-17.3,21.53-22.31-10.08,11.78-21.31,22.46-28.01,37.17-5.98,13.14-9.27,26.88-6.8,41.09.14.79.9,1.41.93,2.03.02.43,1.05.68,1.32.35,2.04-2.41-.89-6.21.71-19.09,1.48-11.92,5.48-22.46,11.66-32.72,29.66-49.25,115.87-76.76,166.97-76.91l13.18-.04c.96,0,1.71-1.01,2.04-1.96h-8.08l-1,1h-2s-.8-2.07-1.49-2.06-1.66.13-1.51,1.06l-.94-.22c-23.23-5.34-122.3,23.76-146.99,50.29,18.95-16.11,40.32-27.25,63.89-35.41,56.53-19.55,122.91-22.04,181.05-7.56,23.84,5.94,47.12,13.66,67.01,27.1ZM396.88,208.52l62.18-35.8c9.92-5.71,19-11.35,29.28-16.15l50.47-28.8-20.94-12.24-1.15-11.53-40.87,1-175.63-.02-1.09,32.02,132.57.75-150.06,82.07,18.36,12.52.09,14.66,239.61.11-1.66-38.11-141.17-.48ZM595.79,127.51c-.71-.85-1.54-1.15-2.39-.64-.46.28-.64,1.12-.23,2.23,10.42,12.59,16.96,27.16,18.89,43.27.1.87.89,1.44,1.22,1.76,4.08,4.01,1.85-23.6-17.49-46.61ZM389.63,299.96l-21.73-2.34-24.8-3.91-44.64-13.54c8.45,8.38,49.77,17.48,61.81,19.37,29.36,4.6,58.9,6.25,88.18,2.51-18.33-3.35-39.95-.06-58.82-2.09Z"/>
  <path class="cls-5" d="M119.2,381.82c-1.09-.03-3,.51-3.38-.9.75-.07,1.55-1.6,2.55-.89.63.45,1.48.97.83,1.79Z"/>
  <path class="cls-5" d="M111.13,380.14c.34.67-.3.81-.68.85-.91.1-1.95-.19-1.62-1.06.42-.02.85-1.03,1.42-.63.36.25.61.74.87.84Z"/>
  <path class="cls-5" d="M104.93,380.09c-.84.03-1.57-.85-2.15-1.31l.05-.88c.47.09.97.16,1.44.39.62.3.79,1.1.66,1.8Z"/>
  <path class="cls-5" d="M101.27,378.69c-.48.02-.98.2-1.61.12-.66-.09-1.53-.81-.86-1.63.68-.1,1.37-.15,2.12.36.4.28.92.56.36,1.15Z"/>
  <path class="cls-5" d="M97.13,377.14c-.4.56-1.11,1.09-1.57.81-.74-.44-1.5-1.37-.78-1.93.87.1,2.08.09,2.36,1.12Z"/>
  <path class="cls-6" d="M397.56,209l141.82.46,1.67,37.54-241.04-.1v-14.32l-18.87-12.57,150.65-82.01h-133.09l1.09-34,176.06,1,40.4.49,1.14,11.41,20.74,12.13-49.99,28.52c-10.18,4.75-19.17,10.34-28.99,16l-61.58,35.46Z"/>
  <path class="cls-1" d="M392.06,58.78l-.21,2.22c-51.1.15-137.3,27.66-166.97,76.91-6.18,10.26-10.18,20.79-11.66,32.72-1.6,12.89,1.33,16.69-.71,19.09-.28.33-1.3.07-1.32-.35-.03-.62-.79-1.24-.93-2.03-2.47-14.21.82-27.95,6.8-41.09,6.7-14.71,17.93-25.39,28.01-37.17,24.68-26.53,123.76-55.62,146.99-50.29Z"/>
  <path class="cls-1" d="M557.03,93.2c11.58,10.56,27.51,17.24,35.29,32.72-16.31-14.99-31.26-27.62-50.5-36.96-35.93-17.44-70.45-25.31-109.74-27.95l-.09-2.15c30.96.96,61.77,5.91,89.56,18.13l21.24,9.33c4.98,2.19,9.18,5.81,14.23,6.88Z"/>
  <path class="cls-1" d="M389.63,299.96c18.86,2.03,40.49-1.27,58.82,2.09-29.28,3.74-58.81,2.09-88.18-2.51-12.04-1.89-53.36-10.98-61.81-19.37l44.64,13.54,24.8,3.91,21.73,2.34Z"/>
  <path class="cls-1" d="M595.79,127.51c19.34,23.01,21.57,50.63,17.49,46.61-.33-.32-1.11-.89-1.22-1.76-1.94-16.11-8.47-30.67-18.89-43.27-.4-1.1-.23-1.95.23-2.23.84-.51,1.68-.21,2.39.64Z"/>
  <path class="cls-6" d="M425,59h5c1.09,0,1.58-.15,2-.14l.09,2.15c-5.85-.39-10.87,1.23-16.28-1.5,3.04-1.13,6.18-.51,9.19-.51Z"/>
  <path class="cls-6" d="M395.93,59h3.06l8.19.1c-.32.92-1.04,1.9-1.98,1.9l-13.49.04.21-2.26.96.22h3.06Z"/>
  <path class="cls-1" d="M430,59h-5c.86-1.64,4.14-1.64,5,0Z"/>
  <path class="cls-1" d="M396,59h-3c-.16-.93.81-1.05,1.51-1.06s1.65.13,1.49,1.06Z"/>
  <path class="cls-1" d="M399,59h-1c-.04-1.17,1.04-1.17,1,0Z"/>
</svg>
